<svg width="12" height="13" viewBox="0 0 12 13" fill="none" xmlns="http://www.w3.org/2000/svg">
<path d="M11.5 5.00377C11.7761 5.00377 12 5.22763 12 5.50377V7.16509C12 7.44124 11.7761 7.66509 11.5 7.66509H0.5C0.223858 7.66509 0 7.44124 0 7.16509V5.50377C0 5.22763 0.223858 5.00377 0.5 5.00377H11.5ZM6.90681 0C7.18296 0 7.40681 0.223858 7.40681 0.5V12.5C7.40681 12.7761 7.18296 13 6.90681 13H5.10521C4.82907 13 4.60521 12.7761 4.60521 12.5V0.5C4.60521 0.223858 4.82907 0 5.10521 0H6.90681Z" fill="white"/>
</svg>
