<svg width="16" height="16" viewBox="0 0 16 16" fill="none" xmlns="http://www.w3.org/2000/svg">
<path d="M4.76645 11.6464C4.96171 11.8417 5.27829 11.8417 5.47355 11.6464L7.64645 9.47355C7.84171 9.27829 8.15829 9.27829 8.35355 9.47355L10.5264 11.6464C10.7217 11.8417 11.0383 11.8417 11.2336 11.6464L11.6464 11.2336C11.8417 11.0383 11.8417 10.7217 11.6464 10.5264L9.47355 8.35355C9.27829 8.15829 9.27829 7.84171 9.47355 7.64645L11.6464 5.47355C11.8417 5.27829 11.8417 4.96171 11.6464 4.76645L11.2336 4.35355C11.0383 4.15829 10.7217 4.15829 10.5264 4.35355L8.35355 6.52645C8.15829 6.72171 7.84171 6.72171 7.64645 6.52645L5.47355 4.35355C5.27829 4.15829 4.96171 4.15829 4.76645 4.35355L4.35355 4.76645C4.15829 4.96171 4.15829 5.27829 4.35355 5.47355L6.52645 7.64645C6.72171 7.84171 6.72171 8.15829 6.52645 8.35355L4.35355 10.5264C4.15829 10.7217 4.15829 11.0383 4.35355 11.2336L4.76645 11.6464ZM8 16C6.89333 16 5.85333 15.79 4.88 15.37C3.90667 14.95 3.06 14.38 2.34 13.66C1.62 12.94 1.05 12.0933 0.63 11.12C0.21 10.1467 0 9.10667 0 8C0 6.89333 0.21 5.85333 0.63 4.88C1.05 3.90667 1.62 3.06 2.34 2.34C3.06 1.62 3.90667 1.05 4.88 0.63C5.85333 0.21 6.89333 0 8 0C9.10667 0 10.1467 0.21 11.12 0.63C12.0933 1.05 12.94 1.62 13.66 2.34C14.38 3.06 14.95 3.90667 15.37 4.88C15.79 5.85333 16 6.89333 16 8C16 9.10667 15.79 10.1467 15.37 11.12C14.95 12.0933 14.38 12.94 13.66 13.66C12.94 14.38 12.0933 14.95 11.12 15.37C10.1467 15.79 9.10667 16 8 16ZM8 14.4C9.78667 14.4 11.3 13.78 12.54 12.54C13.78 11.3 14.4 9.78667 14.4 8C14.4 6.21333 13.78 4.7 12.54 3.46C11.3 2.22 9.78667 1.6 8 1.6C6.21333 1.6 4.7 2.22 3.46 3.46C2.22 4.7 1.6 6.21333 1.6 8C1.6 9.78667 2.22 11.3 3.46 12.54C4.7 13.78 6.21333 14.4 8 14.4Z" fill="#44475B"/>
</svg>
