<svg width="26" height="27" viewBox="0 0 26 27" fill="none" xmlns="http://www.w3.org/2000/svg">
<path d="M24.6556 24.0069L18.9847 18.1371C20.3518 16.2576 21.0906 13.9693 21.0894 11.6176C21.0928 5.61074 16.3687 0.721046 10.5587 0.717801C4.7488 0.714555 0.0192424 5.59897 0.0158866 11.6058C0.0125307 17.6127 4.73663 22.5024 10.5466 22.5057C12.8211 22.5095 15.0352 21.7483 16.8546 20.3369L22.5256 26.2066C22.8127 26.4723 23.1872 26.6142 23.5723 26.6033C23.9574 26.5923 24.3239 26.4294 24.5965 26.1479C24.8691 25.8664 25.0271 25.4877 25.0381 25.0895C25.0491 24.6914 24.9122 24.304 24.6556 24.0069ZM3.02639 11.6075C3.02725 10.0685 3.4695 8.56431 4.29721 7.28514C5.12492 6.00596 6.30091 5.00925 7.67649 4.42107C9.05206 3.83288 10.5654 3.67963 12.0252 3.98069C13.485 4.28175 14.8256 5.02361 15.8776 6.11244C16.9295 7.20127 17.6456 8.58818 17.9351 10.0978C18.2247 11.6074 18.0748 13.1719 17.5043 14.5934C16.9339 16.015 15.9686 17.2297 14.7304 18.0841C13.4922 18.9384 12.0368 19.3939 10.5483 19.3931C8.55294 19.3895 6.64046 18.5678 5.23035 17.1083C3.82024 15.6488 3.02763 13.6705 3.02639 11.6075Z" fill="#3568EC"/>
</svg>
