<svg width="26" height="27" viewBox="0 0 26 27" fill="none" xmlns="http://www.w3.org/2000/svg">
<path d="M25.6015 23.4866L19.7074 17.5683C21.1265 15.6714 21.8925 13.3625 21.8899 10.9901C21.8899 4.93018 16.98 0 10.945 0C4.90995 0 0 4.93018 0 10.9901C0 17.0499 4.90995 21.9801 10.945 21.9801C13.3076 21.9827 15.6071 21.2135 17.4961 19.7887L23.3902 25.707C23.6886 25.9748 24.0777 26.1178 24.4777 26.1065C24.8778 26.0953 25.2583 25.9307 25.5413 25.6466C25.8243 25.3624 25.9882 24.9803 25.9994 24.5786C26.0106 24.1769 25.8682 23.7862 25.6015 23.4866ZM3.12713 10.9901C3.12713 9.43747 3.58564 7.91975 4.44467 6.62881C5.30371 5.33788 6.52468 4.33172 7.95321 3.73757C9.38173 3.14342 10.9536 2.98796 12.4701 3.29086C13.9867 3.59375 15.3797 4.3414 16.473 5.43924C17.5663 6.53709 18.3109 7.93584 18.6126 9.4586C18.9142 10.9814 18.7594 12.5597 18.1677 13.9941C17.576 15.4286 16.5739 16.6546 15.2883 17.5171C14.0027 18.3797 12.4912 18.8401 10.945 18.8401C8.87231 18.8376 6.88525 18.0098 5.41967 16.5381C3.95408 15.0665 3.12962 13.0713 3.12713 10.9901Z" fill="#44475B"/>
</svg>
