<svg width="35" height="35" viewBox="0 0 35 35" fill="none" xmlns="http://www.w3.org/2000/svg">
<rect x="0.019043" width="34" height="34" rx="10.0885" transform="rotate(0.0320092 0.019043 0)" fill="#3568EC"/>
<path d="M15.9607 17.0098L11.9003 17.0075M24.9326 16.5473C25.0189 16.59 25.0917 16.6565 25.1426 16.7392C25.1934 16.8219 25.2203 16.9174 25.2202 17.0149C25.2201 17.1123 25.1929 17.2078 25.1419 17.2903C25.0908 17.3729 25.0178 17.4392 24.9314 17.4817L9.46088 25.0292C9.36838 25.0743 9.26465 25.0902 9.16316 25.0747C9.06167 25.0593 8.9671 25.0132 8.89171 24.9426C8.81632 24.8719 8.7636 24.78 8.74038 24.6785C8.71716 24.5771 8.72452 24.471 8.7615 24.3738L11.488 17.1934C11.5335 17.0736 11.5336 16.941 11.4883 16.8213L8.77041 9.63704C8.73386 9.54 8.72684 9.43406 8.75025 9.33292C8.77367 9.23178 8.82643 9.14008 8.90174 9.06968C8.97705 8.99928 9.07144 8.9534 9.17271 8.93797C9.27398 8.92255 9.37748 8.93829 9.46985 8.98315L24.9326 16.5473Z" stroke="white" stroke-width="2" stroke-linecap="round" stroke-linejoin="round"/>
</svg>
