<svg width="16" height="16" viewBox="0 0 16 16" fill="none" xmlns="http://www.w3.org/2000/svg">
<path d="M7.5 12C7.22386 12 7 11.7761 7 11.5V5.05711C7 4.61165 6.46143 4.38857 6.14645 4.70355L4.75981 6.09019C4.56212 6.28788 4.24075 6.28506 4.04656 6.08393L3.34126 5.35345C3.15183 5.15725 3.15456 4.84544 3.3474 4.6526L7.64645 0.353553C7.84171 0.158291 8.15829 0.158291 8.35355 0.353553L12.6526 4.6526C12.8454 4.84544 12.8482 5.15725 12.6587 5.35345L11.9534 6.08393C11.7593 6.28506 11.4379 6.28788 11.2402 6.09019L9.85355 4.70355C9.53857 4.38857 9 4.61165 9 5.05711V11.5C9 11.7761 8.77614 12 8.5 12H7.5ZM2 16C1.45 16 0.979167 15.8042 0.5875 15.4125C0.195833 15.0208 0 14.55 0 14V11.5C0 11.2239 0.223858 11 0.5 11H1.5C1.77614 11 2 11.2239 2 11.5V13.5C2 13.7761 2.22386 14 2.5 14H13.5C13.7761 14 14 13.7761 14 13.5V11.5C14 11.2239 14.2239 11 14.5 11H15.5C15.7761 11 16 11.2239 16 11.5V14C16 14.55 15.8042 15.0208 15.4125 15.4125C15.0208 15.8042 14.55 16 14 16H2Z" fill="#44475B"/>
</svg>
